<svg width="24" height="24" viewBox="0 0 24 24" fill="none" xmlns="http://www.w3.org/2000/svg">
<g clip-path="url(#clip0_506_132)">
<path d="M12.9512 5.11338H7.41028C7.04273 5.11338 6.74238 4.817 6.74238 4.44549C6.74238 4.07794 7.03876 3.77759 7.41028 3.77759H12.9512C13.3187 3.77759 13.6191 4.07397 13.6191 4.44549C13.6191 4.817 13.3227 5.11338 12.9512 5.11338Z" fill="#D8EFFF"/>
<path d="M12.9512 8.88774H4.70304C4.3355 8.88774 4.03514 8.59135 4.03514 8.21984C4.03514 7.84832 4.33152 7.55194 4.70304 7.55194H12.9551C13.3227 7.55194 13.623 7.84832 13.623 8.21984C13.6191 8.59129 13.3227 8.88774 12.9512 8.88774Z" fill="#D8EFFF"/>
<path d="M12.9512 12.662H4.70304C4.3355 12.662 4.03514 12.3656 4.03514 11.9941C4.03514 11.6226 4.33152 11.3262 4.70304 11.3262H12.9551C13.3227 11.3262 13.623 11.6226 13.623 11.9941C13.623 12.3655 13.3227 12.662 12.9512 12.662Z" fill="#D8EFFF"/>
<path d="M9.33895 16.4442H4.7031C4.33556 16.4442 4.0352 16.1478 4.0352 15.7763C4.0352 15.4088 4.33158 15.1084 4.7031 15.1084H9.33895C9.7065 15.1084 10.0069 15.4048 10.0069 15.7763C10.0069 16.1478 9.7065 16.4442 9.33895 16.4442Z" fill="#D8EFFF"/>
<path d="M9.33895 20.2185H4.7031C4.33556 20.2185 4.0352 19.9221 4.0352 19.5506C4.0352 19.1791 4.33158 18.8827 4.7031 18.8827H9.33895C9.7065 18.8827 10.0069 19.1791 10.0069 19.5506C10.0069 19.9221 9.7065 20.2185 9.33895 20.2185Z" fill="#D8EFFF"/>
<path d="M23.5035 9.16825L22.5589 8.22366C21.8317 7.56762 20.9108 7.57154 20.2034 8.22366L17.6582 10.7689V2.00698C17.6582 0.904356 16.761 0.00720215 15.6584 0.00720215H5.05481C4.52129 0.00720215 4.0154 0.21665 3.63599 0.59214L0.584938 3.6432C0.205535 4.0226 0 4.52054 0 5.05406V21.993C0 23.0956 0.897153 23.9928 1.99978 23.9928H15.6584C16.761 23.9928 17.6582 23.0956 17.6582 21.993V17.369L23.5034 11.5238C24.1832 10.8203 24.1476 9.79275 23.5035 9.16825ZM3.82961 2.28362V3.83681H2.27642L3.82961 2.28362ZM16.3264 21.997C16.3264 22.3645 16.03 22.6649 15.6585 22.6649H1.99978C1.63224 22.6649 1.33188 22.3685 1.33188 21.997V5.17267H4.49757C4.86511 5.17267 5.16546 4.87628 5.16546 4.50477V1.33909H15.6584C16.0259 1.33909 16.3263 1.63547 16.3263 2.00698V12.1008L11.7062 16.7248C11.5837 16.8473 11.5125 17.0172 11.5125 17.199V19.5545C11.5125 19.9221 11.8089 20.2224 12.1804 20.2224H14.5359C14.7098 20.2224 14.8797 20.1512 15.0102 20.0287L16.3342 18.7047L16.3264 21.997ZM14.2514 18.8866H12.8405V17.4757L19.3457 10.9665L20.7567 12.3774L14.2514 18.8866ZM22.5589 10.5792L21.7052 11.4329L20.2943 10.0219L21.1479 9.16825C21.3179 9.02991 21.472 9.04574 21.6222 9.16825L22.5628 10.1089C22.6814 10.1958 22.7051 10.4606 22.5589 10.5792Z" fill="#D8EFFF"/>
</g>
<defs>
<clipPath id="clip0_506_132">
<rect width="24" height="24" fill="white"/>
</clipPath>
</defs>
</svg>
